<svg xmlns="http://www.w3.org/2000/svg" width="3375" height="1084" viewBox="0 0 3375 1084"><rect width="3375" height="1084" fill="#FFFFFF"/><defs><marker id="ah" markerWidth="9" markerHeight="9" refX="8" refY="3" orient="auto"><path d="M0,0 L8,3 L0,6 z" fill="#4A5568"/></marker></defs><text x="1687.5" y="36" text-anchor="middle" font-family="DejaVu Sans" font-size="22" font-weight="bold" fill="#1B2A41">QL1 – Quy trình Quản lý chuỗi cung ứng &amp; Thu mua nông sản (Phê duyệt NCC) – AS-IS</text><rect x="235" y="66" width="3120" height="150" fill="#FFFFFF" stroke="#8497B0" stroke-width="1"/><rect x="20" y="66" width="215" height="150" fill="#EDF1F7" stroke="#8497B0" stroke-width="1"/><text x="127.5" y="137.0" text-anchor="middle" font-family="DejaVu Sans" font-size="13" font-weight="bold" fill="#1B2A41">Bộ phận Kế hoạch / Cửa</text><text x="127.5" y="155.0" text-anchor="middle" font-family="DejaVu Sans" font-size="13" font-weight="bold" fill="#1B2A41">hàng</text><rect x="235" y="216" width="3120" height="150" fill="#F8FAFD" stroke="#8497B0" stroke-width="1"/><rect x="20" y="216" width="215" height="150" fill="#EDF1F7" stroke="#8497B0" stroke-width="1"/><text x="127.5" y="296.0" text-anchor="middle" font-family="DejaVu Sans" font-size="13" font-weight="bold" fill="#1B2A41">Phòng Thu mua</text><rect x="235" y="366" width="3120" height="150" fill="#FFFFFF" stroke="#8497B0" stroke-width="1"/><rect x="20" y="366" width="215" height="150" fill="#EDF1F7" stroke="#8497B0" stroke-width="1"/><text x="127.5" y="437.0" text-anchor="middle" font-family="DejaVu Sans" font-size="13" font-weight="bold" fill="#1B2A41">Nhà cung cấp (nông</text><text x="127.5" y="455.0" text-anchor="middle" font-family="DejaVu Sans" font-size="13" font-weight="bold" fill="#1B2A41">trại)</text><rect x="235" y="516" width="3120" height="150" fill="#F8FAFD" stroke="#8497B0" stroke-width="1"/><rect x="20" y="516" width="215" height="150" fill="#EDF1F7" stroke="#8497B0" stroke-width="1"/><text x="127.5" y="596.0" text-anchor="middle" font-family="DejaVu Sans" font-size="13" font-weight="bold" fill="#1B2A41">Phòng QA/QC</text><rect x="235" y="666" width="3120" height="150" fill="#FFFFFF" stroke="#8497B0" stroke-width="1"/><rect x="20" y="666" width="215" height="150" fill="#EDF1F7" stroke="#8497B0" stroke-width="1"/><text x="127.5" y="746.0" text-anchor="middle" font-family="DejaVu Sans" font-size="13" font-weight="bold" fill="#1B2A41">Ban Giám đốc</text><rect x="235" y="816" width="3120" height="150" fill="#F8FAFD" stroke="#8497B0" stroke-width="1"/><rect x="20" y="816" width="215" height="150" fill="#EDF1F7" stroke="#8497B0" stroke-width="1"/><text x="127.5" y="896.0" text-anchor="middle" font-family="DejaVu Sans" font-size="13" font-weight="bold" fill="#1B2A41">Kho &amp; Kế toán</text><rect x="20" y="66" width="3335" height="900" fill="none" stroke="#1B2A41" stroke-width="2"/><path d="M 360,141 L 403,141 L 403,291 L 446,291" fill="none" stroke="#4A5568" stroke-width="1.8" marker-end="url(#ah)"/><path d="M 608,291 L 625,291 L 625,441 L 642,441" fill="none" stroke="#4A5568" stroke-width="1.8" marker-end="url(#ah)"/><path d="M 804,441 L 820,441 L 820,591 L 836,591" fill="none" stroke="#4A5568" stroke-width="1.8" marker-end="url(#ah)"/><path d="M 998,591 L 1078,591" fill="none" stroke="#4A5568" stroke-width="1.8" marker-end="url(#ah)"/><path d="M 1146,591 L 1186,591 L 1186,291 L 1226,291" fill="none" stroke="#4A5568" stroke-width="1.8" marker-end="url(#ah)"/><text x="1156" y="582" font-family="DejaVu Sans" font-size="12" font-weight="bold" fill="#B03A2E">Đạt</text><path d="M 1112,557 L 1112,441 L 1226,441" fill="none" stroke="#4A5568" stroke-width="1.8" marker-end="url(#ah)"/><text x="1120" y="499" font-family="DejaVu Sans" font-size="12" font-weight="bold" fill="#B03A2E">Không đạt</text><path d="M 1388,441 L 1476,441" fill="none" stroke="#4A5568" stroke-width="1.8" marker-end="url(#ah)"/><path d="M 1388,291 L 1422,291" fill="none" stroke="#4A5568" stroke-width="1.8" marker-end="url(#ah)"/><path d="M 1584,291 L 1624,291 L 1624,741 L 1664,741" fill="none" stroke="#4A5568" stroke-width="1.8" marker-end="url(#ah)"/><path d="M 1732,741 L 1772,741 L 1772,291 L 1812,291" fill="none" stroke="#4A5568" stroke-width="1.8" marker-end="url(#ah)"/><text x="1742" y="732" font-family="DejaVu Sans" font-size="12" font-weight="bold" fill="#B03A2E">Duyệt</text><path d="M 1698,775 L 1698,1008 L 1186,1008 L 1186,291 L 1226,291" fill="none" stroke="#4A5568" stroke-width="1.8" marker-end="url(#ah)"/><text x="1708" y="795" font-family="DejaVu Sans" font-size="12" font-weight="bold" fill="#B03A2E">Không duyệt – đàm phán lại</text><path d="M 1974,291 L 2006,291" fill="none" stroke="#4A5568" stroke-width="1.8" marker-end="url(#ah)"/><path d="M 2168,291 L 2185,291 L 2185,441 L 2202,441" fill="none" stroke="#4A5568" stroke-width="1.8" marker-end="url(#ah)"/><path d="M 2364,441 L 2380,441 L 2380,591 L 2396,591" fill="none" stroke="#4A5568" stroke-width="1.8" marker-end="url(#ah)"/><path d="M 2558,591 L 2638,591" fill="none" stroke="#4A5568" stroke-width="1.8" marker-end="url(#ah)"/><path d="M 2706,591 L 2746,591 L 2746,891 L 2786,891" fill="none" stroke="#4A5568" stroke-width="1.8" marker-end="url(#ah)"/><text x="2716" y="582" font-family="DejaVu Sans" font-size="12" font-weight="bold" fill="#B03A2E">Đạt</text><path d="M 2672,557 L 2672,441 L 2786,441" fill="none" stroke="#4A5568" stroke-width="1.8" marker-end="url(#ah)"/><text x="2680" y="499" font-family="DejaVu Sans" font-size="12" font-weight="bold" fill="#B03A2E">Không đạt</text><path d="M 2948,441 L 3036,441" fill="none" stroke="#4A5568" stroke-width="1.8" marker-end="url(#ah)"/><path d="M 2948,891 L 2982,891" fill="none" stroke="#4A5568" stroke-width="1.8" marker-end="url(#ah)"/><path d="M 3144,891 L 3230,891" fill="none" stroke="#4A5568" stroke-width="1.8" marker-end="url(#ah)"/><circle cx="332.5" cy="141.0" r="27.0" fill="#D5E8D4" stroke="#82B366" stroke-width="2"/><text x="332.5" y="184.0" text-anchor="middle" font-family="DejaVu Sans" font-size="12" fill="#1B2A41">Phát sinh nhu cầu</text><text x="332.5" y="199.0" text-anchor="middle" font-family="DejaVu Sans" font-size="12" fill="#1B2A41">nguồn hàng</text><rect x="446.5" y="253.0" width="162" height="76" rx="8" ry="8" fill="#DAE8FC" stroke="#6C8EBF" stroke-width="1.6"/><text x="527.5" y="279.0" text-anchor="middle" font-family="DejaVu Sans" font-size="12" fill="#1B2A41">Khảo sát thị trường,</text><text x="527.5" y="295.0" text-anchor="middle" font-family="DejaVu Sans" font-size="12" fill="#1B2A41">lập danh sách NCC</text><text x="527.5" y="311.0" text-anchor="middle" font-family="DejaVu Sans" font-size="12" fill="#1B2A41">tiềm năng</text><rect x="641.5" y="403.0" width="162" height="76" rx="8" ry="8" fill="#DAE8FC" stroke="#6C8EBF" stroke-width="1.6"/><text x="722.5" y="421.0" text-anchor="middle" font-family="DejaVu Sans" font-size="12" fill="#1B2A41">NCC nộp hồ sơ năng</text><text x="722.5" y="437.0" text-anchor="middle" font-family="DejaVu Sans" font-size="12" fill="#1B2A41">lực, chứng nhận</text><text x="722.5" y="453.0" text-anchor="middle" font-family="DejaVu Sans" font-size="12" fill="#1B2A41">VietGAP &amp; mẫu sản</text><text x="722.5" y="469.0" text-anchor="middle" font-family="DejaVu Sans" font-size="12" fill="#1B2A41">phẩm</text><rect x="836.5" y="553.0" width="162" height="76" rx="8" ry="8" fill="#DAE8FC" stroke="#6C8EBF" stroke-width="1.6"/><text x="917.5" y="579.0" text-anchor="middle" font-family="DejaVu Sans" font-size="12" fill="#1B2A41">Thẩm định hồ sơ, kiểm</text><text x="917.5" y="595.0" text-anchor="middle" font-family="DejaVu Sans" font-size="12" fill="#1B2A41">nghiệm mẫu, đánh giá</text><text x="917.5" y="611.0" text-anchor="middle" font-family="DejaVu Sans" font-size="12" fill="#1B2A41">nông trại</text><polygon points="1112.5,557.0 1146.5,591.0 1112.5,625.0 1078.5,591.0" fill="#FFF2CC" stroke="#D6B656" stroke-width="1.6"/><text x="1112.5" y="597.0" text-anchor="middle" font-family="DejaVu Sans" font-size="18" font-weight="bold" fill="#7D6608">?</text><text x="1112.5" y="643.0" text-anchor="middle" font-family="DejaVu Sans" font-size="12" font-weight="bold" fill="#1B2A41">Đạt chuẩn ATTP?</text><rect x="1226.5" y="403.0" width="162" height="76" rx="8" ry="8" fill="#DAE8FC" stroke="#6C8EBF" stroke-width="1.6"/><text x="1307.5" y="429.0" text-anchor="middle" font-family="DejaVu Sans" font-size="12" fill="#1B2A41">Nhận thông báo không</text><text x="1307.5" y="445.0" text-anchor="middle" font-family="DejaVu Sans" font-size="12" fill="#1B2A41">đạt, hồ sơ lưu theo</text><text x="1307.5" y="461.0" text-anchor="middle" font-family="DejaVu Sans" font-size="12" fill="#1B2A41">dõi</text><circle cx="1502.5" cy="441.0" r="27.0" fill="#F8CECC" stroke="#B85450" stroke-width="4"/><text x="1502.5" y="484.0" text-anchor="middle" font-family="DejaVu Sans" font-size="12" fill="#1B2A41">Kết thúc – không hợp</text><text x="1502.5" y="499.0" text-anchor="middle" font-family="DejaVu Sans" font-size="12" fill="#1B2A41">tác</text><rect x="1226.5" y="253.0" width="162" height="76" rx="8" ry="8" fill="#DAE8FC" stroke="#6C8EBF" stroke-width="1.6"/><text x="1307.5" y="279.0" text-anchor="middle" font-family="DejaVu Sans" font-size="12" fill="#1B2A41">Đàm phán giá, sản</text><text x="1307.5" y="295.0" text-anchor="middle" font-family="DejaVu Sans" font-size="12" fill="#1B2A41">lượng &amp; điều khoản</text><text x="1307.5" y="311.0" text-anchor="middle" font-family="DejaVu Sans" font-size="12" fill="#1B2A41">giao hàng</text><rect x="1421.5" y="253.0" width="162" height="76" rx="8" ry="8" fill="#DAE8FC" stroke="#6C8EBF" stroke-width="1.6"/><text x="1502.5" y="287.0" text-anchor="middle" font-family="DejaVu Sans" font-size="12" fill="#1B2A41">Lập tờ trình phê</text><text x="1502.5" y="303.0" text-anchor="middle" font-family="DejaVu Sans" font-size="12" fill="#1B2A41">duyệt nhà cung cấp</text><polygon points="1697.5,707.0 1731.5,741.0 1697.5,775.0 1663.5,741.0" fill="#FFF2CC" stroke="#D6B656" stroke-width="1.6"/><text x="1697.5" y="747.0" text-anchor="middle" font-family="DejaVu Sans" font-size="18" font-weight="bold" fill="#7D6608">?</text><text x="1697.5" y="699.0" text-anchor="middle" font-family="DejaVu Sans" font-size="12" font-weight="bold" fill="#1B2A41">Ban Giám đốc phê duyệt?</text><rect x="1811.5" y="253.0" width="162" height="76" rx="8" ry="8" fill="#DAE8FC" stroke="#6C8EBF" stroke-width="1.6"/><text x="1892.5" y="287.0" text-anchor="middle" font-family="DejaVu Sans" font-size="12" fill="#1B2A41">Ký hợp đồng khung,</text><text x="1892.5" y="303.0" text-anchor="middle" font-family="DejaVu Sans" font-size="12" fill="#1B2A41">khai báo NCC trên ERP</text><rect x="2006.5" y="253.0" width="162" height="76" rx="8" ry="8" fill="#DAE8FC" stroke="#6C8EBF" stroke-width="1.6"/><text x="2087.5" y="279.0" text-anchor="middle" font-family="DejaVu Sans" font-size="12" fill="#1B2A41">Phát hành đơn đặt</text><text x="2087.5" y="295.0" text-anchor="middle" font-family="DejaVu Sans" font-size="12" fill="#1B2A41">hàng (PO) theo kế</text><text x="2087.5" y="311.0" text-anchor="middle" font-family="DejaVu Sans" font-size="12" fill="#1B2A41">hoạch tuần</text><rect x="2201.5" y="403.0" width="162" height="76" rx="8" ry="8" fill="#DAE8FC" stroke="#6C8EBF" stroke-width="1.6"/><text x="2282.5" y="437.0" text-anchor="middle" font-family="DejaVu Sans" font-size="12" fill="#1B2A41">NCC giao hàng đến kho</text><text x="2282.5" y="453.0" text-anchor="middle" font-family="DejaVu Sans" font-size="12" fill="#1B2A41">theo PO</text><rect x="2396.5" y="553.0" width="162" height="76" rx="8" ry="8" fill="#DAE8FC" stroke="#6C8EBF" stroke-width="1.6"/><text x="2477.5" y="579.0" text-anchor="middle" font-family="DejaVu Sans" font-size="12" fill="#1B2A41">Kiểm nhận, lấy mẫu</text><text x="2477.5" y="595.0" text-anchor="middle" font-family="DejaVu Sans" font-size="12" fill="#1B2A41">test nhanh dư lượng</text><text x="2477.5" y="611.0" text-anchor="middle" font-family="DejaVu Sans" font-size="12" fill="#1B2A41">lô hàng</text><polygon points="2672.5,557.0 2706.5,591.0 2672.5,625.0 2638.5,591.0" fill="#FFF2CC" stroke="#D6B656" stroke-width="1.6"/><text x="2672.5" y="597.0" text-anchor="middle" font-family="DejaVu Sans" font-size="18" font-weight="bold" fill="#7D6608">?</text><text x="2672.5" y="643.0" text-anchor="middle" font-family="DejaVu Sans" font-size="12" font-weight="bold" fill="#1B2A41">Lô hàng đạt?</text><rect x="2786.5" y="403.0" width="162" height="76" rx="8" ry="8" fill="#DAE8FC" stroke="#6C8EBF" stroke-width="1.6"/><text x="2867.5" y="429.0" text-anchor="middle" font-family="DejaVu Sans" font-size="12" fill="#1B2A41">Trả hàng, lập biên</text><text x="2867.5" y="445.0" text-anchor="middle" font-family="DejaVu Sans" font-size="12" fill="#1B2A41">bản không phù hợp</text><text x="2867.5" y="461.0" text-anchor="middle" font-family="DejaVu Sans" font-size="12" fill="#1B2A41">(NCR)</text><circle cx="3062.5" cy="441.0" r="27.0" fill="#F8CECC" stroke="#B85450" stroke-width="4"/><text x="3062.5" y="484.0" text-anchor="middle" font-family="DejaVu Sans" font-size="12" fill="#1B2A41">Kết thúc – trả lô hàng</text><rect x="2786.5" y="853.0" width="162" height="76" rx="8" ry="8" fill="#DAE8FC" stroke="#6C8EBF" stroke-width="1.6"/><text x="2867.5" y="879.0" text-anchor="middle" font-family="DejaVu Sans" font-size="12" fill="#1B2A41">Nhập kho, cập nhật</text><text x="2867.5" y="895.0" text-anchor="middle" font-family="DejaVu Sans" font-size="12" fill="#1B2A41">tồn &amp; lô date trên</text><text x="2867.5" y="911.0" text-anchor="middle" font-family="DejaVu Sans" font-size="12" fill="#1B2A41">ERP</text><rect x="2981.5" y="853.0" width="162" height="76" rx="8" ry="8" fill="#DAE8FC" stroke="#6C8EBF" stroke-width="1.6"/><text x="3062.5" y="887.0" text-anchor="middle" font-family="DejaVu Sans" font-size="12" fill="#1B2A41">Đối chiếu công nợ &amp;</text><text x="3062.5" y="903.0" text-anchor="middle" font-family="DejaVu Sans" font-size="12" fill="#1B2A41">thanh toán cho NCC</text><circle cx="3257.5" cy="891.0" r="27.0" fill="#F8CECC" stroke="#B85450" stroke-width="4"/><text x="3257.5" y="934.0" text-anchor="middle" font-family="DejaVu Sans" font-size="12" fill="#1B2A41">Kết thúc</text><text x="1687.5" y="1066" text-anchor="middle" font-family="DejaVu Sans" font-size="15" font-style="italic" fill="#333333">Hình 2.2. Sơ đồ luồng quy trình QL1 – Thu mua &amp; Phê duyệt nhà cung cấp (AS-IS)</text></svg>