<svg xmlns="http://www.w3.org/2000/svg" width="1860" height="790" viewBox="0 0 1860 790" font-family="Helvetica, Arial, sans-serif">
<rect width="1860" height="790" fill="#ffffff"/>
<text x="26" y="42" font-size="21" font-weight="bold" fill="#111">Hình – Sơ đồ tổ chức khối Thương mại điện tử &amp; Giao vận của Farmers Market</text>
<path d="M 930.0 112.0 L 930.0 145.0 L 930.0 145.0 L 930.0 178.0" fill="none" stroke="#8b93a1" stroke-width="1.9"/>
<path d="M 930.0 242.0 L 930.0 283.5 L 330.0 283.5 L 330.0 325.0" fill="none" stroke="#8b93a1" stroke-width="1.9"/>
<path d="M 930.0 242.0 L 930.0 283.5 L 930.0 283.5 L 930.0 325.0" fill="none" stroke="#8b93a1" stroke-width="1.9"/>
<path d="M 930.0 242.0 L 930.0 283.5 L 1530.0 283.5 L 1530.0 325.0" fill="none" stroke="#8b93a1" stroke-width="1.9"/>
<path d="M 330.0 385.0 L 330.0 437.5 L 180.0 437.5 L 180.0 490.0" fill="none" stroke="#8b93a1" stroke-width="1.9"/>
<path d="M 330.0 385.0 L 330.0 437.5 L 490.0 437.5 L 490.0 490.0" fill="none" stroke="#8b93a1" stroke-width="1.9"/>
<path d="M 930.0 385.0 L 930.0 437.5 L 790.0 437.5 L 790.0 490.0" fill="none" stroke="#8b93a1" stroke-width="1.9"/>
<path d="M 930.0 385.0 L 930.0 437.5 L 1085.0 437.5 L 1085.0 490.0" fill="none" stroke="#8b93a1" stroke-width="1.9"/>
<path d="M 1530.0 385.0 L 1530.0 437.5 L 1390.0 437.5 L 1390.0 490.0" fill="none" stroke="#8b93a1" stroke-width="1.9"/>
<path d="M 1530.0 385.0 L 1530.0 437.5 L 1670.0 437.5 L 1670.0 490.0" fill="none" stroke="#8b93a1" stroke-width="1.9"/>
<path d="M 330.0 385.0 L 330.0 508.0 L 335.0 508.0 L 335.0 631.0" fill="none" stroke="#8b93a1" stroke-width="1.9"/>
<rect x="800.0" y="48.0" width="260" height="64" rx="9" fill="#dfe7f2" stroke="#2f5c96" stroke-width="2"/>
<text x="930.0" y="76.8" font-size="12.5" text-anchor="middle" fill="#1b2330" font-weight="bold">Ban Giám đốc</text><text x="930.0" y="91.9" font-size="12.5" text-anchor="middle" fill="#1b2330" font-weight="bold">Farmers Market</text>
<rect x="780.0" y="178.0" width="300" height="64" rx="9" fill="#dfe7f2" stroke="#2f5c96" stroke-width="2"/>
<text x="930.0" y="206.8" font-size="12.5" text-anchor="middle" fill="#1b2330" font-weight="bold">Giám đốc Thương mại điện tử</text><text x="930.0" y="221.9" font-size="12.5" text-anchor="middle" fill="#1b2330" font-weight="bold">&amp; Vận hành giao hàng</text>
<rect x="195.0" y="325.0" width="270" height="60" rx="9" fill="#e8f1fb" stroke="#2f6fb0" stroke-width="2"/>
<text x="330.0" y="351.8" font-size="12.5" text-anchor="middle" fill="#1b2330" font-weight="bold">Trưởng bộ phận</text><text x="330.0" y="366.9" font-size="12.5" text-anchor="middle" fill="#1b2330" font-weight="bold">Tổng đài &amp; Điều phối đơn</text>
<rect x="795.0" y="325.0" width="270" height="60" rx="9" fill="#e8f1fb" stroke="#2f6fb0" stroke-width="2"/>
<text x="930.0" y="351.8" font-size="12.5" text-anchor="middle" fill="#1b2330" font-weight="bold">Quản lý cửa hàng</text><text x="930.0" y="366.9" font-size="12.5" text-anchor="middle" fill="#1b2330" font-weight="bold">(khu soạn đơn online)</text>
<rect x="1395.0" y="325.0" width="270" height="60" rx="9" fill="#e8f1fb" stroke="#2f6fb0" stroke-width="2"/>
<text x="1530.0" y="351.8" font-size="12.5" text-anchor="middle" fill="#1b2330" font-weight="bold">Trưởng đội</text><text x="1530.0" y="366.9" font-size="12.5" text-anchor="middle" fill="#1b2330" font-weight="bold">Giao hàng tươi</text>
<rect x="45.0" y="490.0" width="270" height="60" rx="9" fill="#f2f6fb" stroke="#7a93b5" stroke-width="2"/>
<text x="180.0" y="516.8" font-size="12.5" text-anchor="middle" fill="#1b2330" font-weight="bold">Nhân viên Tổng đài</text><text x="180.0" y="531.9" font-size="12.5" text-anchor="middle" fill="#1b2330" font-weight="bold">xác nhận &amp; xử lý hết hàng</text>
<rect x="355.0" y="490.0" width="270" height="60" rx="9" fill="#f2f6fb" stroke="#7a93b5" stroke-width="2"/>
<text x="490.0" y="516.8" font-size="12.5" text-anchor="middle" fill="#1b2330" font-weight="bold">Nhân viên Điều phối</text><text x="490.0" y="531.9" font-size="12.5" text-anchor="middle" fill="#1b2330" font-weight="bold">tuyến giao &amp; gán shipper</text>
<rect x="655.0" y="490.0" width="270" height="60" rx="9" fill="#f2f6fb" stroke="#7a93b5" stroke-width="2"/>
<text x="790.0" y="516.8" font-size="12.5" text-anchor="middle" fill="#1b2330" font-weight="bold">Nhân viên Soạn hàng</text><text x="790.0" y="531.9" font-size="12.5" text-anchor="middle" fill="#1b2330" font-weight="bold">(picking, cân trọng lượng)</text>
<rect x="950.0" y="490.0" width="270" height="60" rx="9" fill="#f2f6fb" stroke="#7a93b5" stroke-width="2"/>
<text x="1085.0" y="516.8" font-size="12.5" text-anchor="middle" fill="#1b2330" font-weight="bold">Nhân viên Đóng gói</text><text x="1085.0" y="531.9" font-size="12.5" text-anchor="middle" fill="#1b2330" font-weight="bold">&amp; kiểm nhiệt độ thùng</text>
<rect x="1265.0" y="490.0" width="250" height="60" rx="9" fill="#f2f6fb" stroke="#7a93b5" stroke-width="2"/>
<text x="1390.0" y="516.8" font-size="12.5" text-anchor="middle" fill="#1b2330" font-weight="bold">Shipper xe máy</text><text x="1390.0" y="531.9" font-size="12.5" text-anchor="middle" fill="#1b2330" font-weight="bold">thùng giữ lạnh</text>
<rect x="1545.0" y="490.0" width="250" height="60" rx="9" fill="#f2f6fb" stroke="#7a93b5" stroke-width="2"/>
<text x="1670.0" y="516.8" font-size="12.5" text-anchor="middle" fill="#1b2330" font-weight="bold">Shipper xe tải lạnh</text><text x="1670.0" y="531.9" font-size="12.5" text-anchor="middle" fill="#1b2330" font-weight="bold">(đơn số lượng lớn)</text>
<rect x="185.0" y="631.0" width="300" height="58" rx="9" fill="#fafbfd" stroke="#9aa8bb" stroke-width="2"/>
<text x="335.0" y="656.8" font-size="12.5" text-anchor="middle" fill="#1b2330" font-weight="bold">Nhân viên Chăm sóc</text><text x="335.0" y="671.9" font-size="12.5" text-anchor="middle" fill="#1b2330" font-weight="bold">sau giao hàng (khảo sát, tích điểm)</text>
</svg>